<mxfile host="app.diagrams.net" modified="2022-07-26T06:13:29.106Z" agent="5.0 (Macintosh; Intel Mac OS X 10_15_7) AppleWebKit/537.36 (KHTML, like Gecko) Chrome/103.0.0.0 Safari/537.36" etag="l6U15GTK_L8OpnfrrWMh" version="20.1.1" type="github" pages="2">
  <diagram id="C5RBs43oDa-KdzZeNtuy" name="Page-1">
    <mxGraphModel dx="1533" dy="700" grid="1" gridSize="10" guides="1" tooltips="1" connect="1" arrows="1" fold="1" page="1" pageScale="1" pageWidth="827" pageHeight="1169" math="0" shadow="0">
      <root>
        <mxCell id="WIyWlLk6GJQsqaUBKTNV-0" />
        <mxCell id="WIyWlLk6GJQsqaUBKTNV-1" parent="WIyWlLk6GJQsqaUBKTNV-0" />
        <mxCell id="CAyhc8mfx0glXmEoqwEW-2" value="&lt;font style=&quot;font-size: 22px;&quot;&gt;公有云生产&lt;/font&gt;" style="ellipse;shape=cloud;whiteSpace=wrap;html=1;align=left;" vertex="1" parent="WIyWlLk6GJQsqaUBKTNV-1">
          <mxGeometry x="10" y="10" width="610" height="280" as="geometry" />
        </mxCell>
        <mxCell id="WIyWlLk6GJQsqaUBKTNV-2" value="" style="rounded=0;html=1;jettySize=auto;orthogonalLoop=1;fontSize=11;endArrow=block;endFill=0;endSize=8;strokeWidth=1;shadow=0;labelBackgroundColor=none;edgeStyle=orthogonalEdgeStyle;entryX=0;entryY=0.75;entryDx=0;entryDy=0;" parent="WIyWlLk6GJQsqaUBKTNV-1" source="WIyWlLk6GJQsqaUBKTNV-3" target="CAyhc8mfx0glXmEoqwEW-1" edge="1">
          <mxGeometry relative="1" as="geometry">
            <mxPoint x="260" y="260" as="targetPoint" />
            <Array as="points" />
          </mxGeometry>
        </mxCell>
        <mxCell id="WIyWlLk6GJQsqaUBKTNV-3" value="&lt;font style=&quot;font-size: 15px;&quot;&gt;fe-cc-gray-m&lt;/font&gt;" style="rounded=1;whiteSpace=wrap;html=1;fontSize=12;glass=0;strokeWidth=1;shadow=0;" parent="WIyWlLk6GJQsqaUBKTNV-1" vertex="1">
          <mxGeometry x="130" y="90" width="120" height="40" as="geometry" />
        </mxCell>
        <mxCell id="CAyhc8mfx0glXmEoqwEW-12" style="rounded=0;orthogonalLoop=1;jettySize=auto;html=1;fontSize=15;" edge="1" parent="WIyWlLk6GJQsqaUBKTNV-1" source="CAyhc8mfx0glXmEoqwEW-1" target="CAyhc8mfx0glXmEoqwEW-3">
          <mxGeometry relative="1" as="geometry" />
        </mxCell>
        <mxCell id="CAyhc8mfx0glXmEoqwEW-17" value="secret key" style="edgeLabel;html=1;align=center;verticalAlign=middle;resizable=0;points=[];fontSize=15;" vertex="1" connectable="0" parent="CAyhc8mfx0glXmEoqwEW-12">
          <mxGeometry x="0.0167" y="-4" relative="1" as="geometry">
            <mxPoint x="-26" y="33" as="offset" />
          </mxGeometry>
        </mxCell>
        <mxCell id="CAyhc8mfx0glXmEoqwEW-13" style="edgeStyle=none;rounded=0;orthogonalLoop=1;jettySize=auto;html=1;exitX=0.5;exitY=1;exitDx=0;exitDy=0;entryX=0.625;entryY=0.2;entryDx=0;entryDy=0;entryPerimeter=0;fontSize=15;" edge="1" parent="WIyWlLk6GJQsqaUBKTNV-1" source="CAyhc8mfx0glXmEoqwEW-1" target="CAyhc8mfx0glXmEoqwEW-7">
          <mxGeometry relative="1" as="geometry" />
        </mxCell>
        <mxCell id="CAyhc8mfx0glXmEoqwEW-18" value="secret key" style="edgeLabel;html=1;align=center;verticalAlign=middle;resizable=0;points=[];fontSize=15;" vertex="1" connectable="0" parent="CAyhc8mfx0glXmEoqwEW-13">
          <mxGeometry x="0.1678" y="-3" relative="1" as="geometry">
            <mxPoint y="4" as="offset" />
          </mxGeometry>
        </mxCell>
        <mxCell id="CAyhc8mfx0glXmEoqwEW-14" style="edgeStyle=none;rounded=0;orthogonalLoop=1;jettySize=auto;html=1;fontSize=15;" edge="1" parent="WIyWlLk6GJQsqaUBKTNV-1" source="CAyhc8mfx0glXmEoqwEW-1" target="CAyhc8mfx0glXmEoqwEW-8">
          <mxGeometry relative="1" as="geometry">
            <mxPoint x="520" y="350" as="sourcePoint" />
          </mxGeometry>
        </mxCell>
        <mxCell id="CAyhc8mfx0glXmEoqwEW-19" value="secret key" style="edgeLabel;html=1;align=center;verticalAlign=middle;resizable=0;points=[];fontSize=15;" vertex="1" connectable="0" parent="CAyhc8mfx0glXmEoqwEW-14">
          <mxGeometry x="0.2376" y="1" relative="1" as="geometry">
            <mxPoint x="9" as="offset" />
          </mxGeometry>
        </mxCell>
        <mxCell id="CAyhc8mfx0glXmEoqwEW-15" style="edgeStyle=none;rounded=0;orthogonalLoop=1;jettySize=auto;html=1;exitX=0.75;exitY=1;exitDx=0;exitDy=0;fontSize=15;" edge="1" parent="WIyWlLk6GJQsqaUBKTNV-1" source="CAyhc8mfx0glXmEoqwEW-1" target="CAyhc8mfx0glXmEoqwEW-9">
          <mxGeometry relative="1" as="geometry" />
        </mxCell>
        <mxCell id="CAyhc8mfx0glXmEoqwEW-20" value="secret key" style="edgeLabel;html=1;align=center;verticalAlign=middle;resizable=0;points=[];fontSize=15;" vertex="1" connectable="0" parent="CAyhc8mfx0glXmEoqwEW-15">
          <mxGeometry x="0.2126" y="2" relative="1" as="geometry">
            <mxPoint x="4" as="offset" />
          </mxGeometry>
        </mxCell>
        <mxCell id="CAyhc8mfx0glXmEoqwEW-16" style="edgeStyle=none;rounded=0;orthogonalLoop=1;jettySize=auto;html=1;exitX=1;exitY=1;exitDx=0;exitDy=0;entryX=0.4;entryY=0.1;entryDx=0;entryDy=0;entryPerimeter=0;fontSize=15;" edge="1" parent="WIyWlLk6GJQsqaUBKTNV-1" source="CAyhc8mfx0glXmEoqwEW-1" target="CAyhc8mfx0glXmEoqwEW-10">
          <mxGeometry relative="1" as="geometry" />
        </mxCell>
        <mxCell id="CAyhc8mfx0glXmEoqwEW-21" value="secret key" style="edgeLabel;html=1;align=center;verticalAlign=middle;resizable=0;points=[];fontSize=15;" vertex="1" connectable="0" parent="CAyhc8mfx0glXmEoqwEW-16">
          <mxGeometry x="0.1114" y="2" relative="1" as="geometry">
            <mxPoint x="16" y="7" as="offset" />
          </mxGeometry>
        </mxCell>
        <mxCell id="CAyhc8mfx0glXmEoqwEW-1" value="&lt;font style=&quot;font-size: 15px;&quot;&gt;bff-cc-gray-m&lt;/font&gt;" style="rounded=1;whiteSpace=wrap;html=1;fontSize=12;glass=0;strokeWidth=1;shadow=0;" vertex="1" parent="WIyWlLk6GJQsqaUBKTNV-1">
          <mxGeometry x="230" y="170" width="120" height="40" as="geometry" />
        </mxCell>
        <mxCell id="CAyhc8mfx0glXmEoqwEW-3" value="&lt;font style=&quot;font-size: 15px;&quot;&gt;xxx环境&lt;br&gt;cc-gray-m&lt;/font&gt;" style="ellipse;shape=cloud;whiteSpace=wrap;html=1;fontSize=22;" vertex="1" parent="WIyWlLk6GJQsqaUBKTNV-1">
          <mxGeometry x="-20" y="480" width="120" height="80" as="geometry" />
        </mxCell>
        <mxCell id="CAyhc8mfx0glXmEoqwEW-7" value="&lt;font style=&quot;font-size: 15px;&quot;&gt;xxx环境&lt;br&gt;cc-gray-m&lt;/font&gt;" style="ellipse;shape=cloud;whiteSpace=wrap;html=1;fontSize=22;" vertex="1" parent="WIyWlLk6GJQsqaUBKTNV-1">
          <mxGeometry x="110" y="480" width="120" height="80" as="geometry" />
        </mxCell>
        <mxCell id="CAyhc8mfx0glXmEoqwEW-8" value="&lt;font style=&quot;font-size: 15px;&quot;&gt;xxx环境&lt;br&gt;cc-gray-m&lt;/font&gt;" style="ellipse;shape=cloud;whiteSpace=wrap;html=1;fontSize=22;" vertex="1" parent="WIyWlLk6GJQsqaUBKTNV-1">
          <mxGeometry x="254" y="480" width="120" height="80" as="geometry" />
        </mxCell>
        <mxCell id="CAyhc8mfx0glXmEoqwEW-9" value="&lt;font style=&quot;font-size: 15px;&quot;&gt;xxx环境&lt;br&gt;cc-gray-m&lt;/font&gt;" style="ellipse;shape=cloud;whiteSpace=wrap;html=1;fontSize=22;" vertex="1" parent="WIyWlLk6GJQsqaUBKTNV-1">
          <mxGeometry x="400" y="480" width="120" height="80" as="geometry" />
        </mxCell>
        <mxCell id="CAyhc8mfx0glXmEoqwEW-10" value="&lt;font style=&quot;font-size: 15px;&quot;&gt;xxx环境&lt;br&gt;cc-gray-m&lt;/font&gt;" style="ellipse;shape=cloud;whiteSpace=wrap;html=1;fontSize=22;" vertex="1" parent="WIyWlLk6GJQsqaUBKTNV-1">
          <mxGeometry x="540" y="480" width="120" height="80" as="geometry" />
        </mxCell>
        <mxCell id="CAyhc8mfx0glXmEoqwEW-23" value="&lt;span style=&quot;font-size: 15px;&quot;&gt;获取集群服务&lt;/span&gt;" style="rounded=1;whiteSpace=wrap;html=1;fontSize=12;glass=0;strokeWidth=1;shadow=0;" vertex="1" parent="WIyWlLk6GJQsqaUBKTNV-1">
          <mxGeometry x="280" y="80" width="120" height="40" as="geometry" />
        </mxCell>
        <mxCell id="CAyhc8mfx0glXmEoqwEW-24" value="" style="rounded=0;html=1;jettySize=auto;orthogonalLoop=1;fontSize=11;endArrow=block;endFill=0;endSize=8;strokeWidth=1;shadow=0;labelBackgroundColor=none;exitX=0.25;exitY=0;exitDx=0;exitDy=0;" edge="1" parent="WIyWlLk6GJQsqaUBKTNV-1" source="CAyhc8mfx0glXmEoqwEW-1" target="CAyhc8mfx0glXmEoqwEW-23">
          <mxGeometry relative="1" as="geometry">
            <mxPoint x="220" y="140" as="sourcePoint" />
            <mxPoint x="280" y="210" as="targetPoint" />
          </mxGeometry>
        </mxCell>
        <mxCell id="CAyhc8mfx0glXmEoqwEW-25" value="&lt;span style=&quot;font-size: 15px;&quot;&gt;应用管理服务&lt;/span&gt;" style="rounded=1;whiteSpace=wrap;html=1;fontSize=12;glass=0;strokeWidth=1;shadow=0;" vertex="1" parent="WIyWlLk6GJQsqaUBKTNV-1">
          <mxGeometry x="414" y="80" width="136" height="40" as="geometry" />
        </mxCell>
        <mxCell id="CAyhc8mfx0glXmEoqwEW-27" value="" style="rounded=0;html=1;jettySize=auto;orthogonalLoop=1;fontSize=11;endArrow=block;endFill=0;endSize=8;strokeWidth=1;shadow=0;labelBackgroundColor=none;exitX=0.25;exitY=0;exitDx=0;exitDy=0;entryX=0.25;entryY=1;entryDx=0;entryDy=0;" edge="1" parent="WIyWlLk6GJQsqaUBKTNV-1" source="CAyhc8mfx0glXmEoqwEW-1" target="CAyhc8mfx0glXmEoqwEW-25">
          <mxGeometry relative="1" as="geometry">
            <mxPoint x="260" y="170" as="sourcePoint" />
            <mxPoint x="317.1428571428571" y="120" as="targetPoint" />
          </mxGeometry>
        </mxCell>
        <mxCell id="CAyhc8mfx0glXmEoqwEW-28" value="HTTP调用" style="text;html=1;strokeColor=none;fillColor=none;align=center;verticalAlign=middle;whiteSpace=wrap;rounded=0;fontSize=15;" vertex="1" parent="WIyWlLk6GJQsqaUBKTNV-1">
          <mxGeometry x="50" y="320" width="110" height="40" as="geometry" />
        </mxCell>
        <mxCell id="CAyhc8mfx0glXmEoqwEW-29" value="GRPC调用" style="text;html=1;strokeColor=none;fillColor=none;align=center;verticalAlign=middle;whiteSpace=wrap;rounded=0;fontSize=15;" vertex="1" parent="WIyWlLk6GJQsqaUBKTNV-1">
          <mxGeometry x="400" y="160" width="110" height="40" as="geometry" />
        </mxCell>
      </root>
    </mxGraphModel>
  </diagram>
  <diagram id="fuh4DX6hRGmZikcuS3ub" name="第 2 页">
    <mxGraphModel dx="706" dy="700" grid="1" gridSize="10" guides="1" tooltips="1" connect="1" arrows="1" fold="1" page="1" pageScale="1" pageWidth="827" pageHeight="1169" math="0" shadow="0">
      <root>
        <mxCell id="0" />
        <mxCell id="1" parent="0" />
        <mxCell id="G_KYo-sjxfi8cRtEnCS_-2" value="环境选择组件" style="text;html=1;strokeColor=none;fillColor=none;align=center;verticalAlign=middle;whiteSpace=wrap;rounded=0;fontSize=15;" vertex="1" parent="1">
          <mxGeometry x="240" y="80" width="120" height="70" as="geometry" />
        </mxCell>
        <mxCell id="G_KYo-sjxfi8cRtEnCS_-3" value="" style="shape=image;verticalLabelPosition=bottom;labelBackgroundColor=default;verticalAlign=top;aspect=fixed;imageAspect=0;image=data:image/png,iVBORw0KGgoAAAANSUhEUgAAAPcAAAFBCAYAAACraDmPAAABRWlDQ1BJQ0MgUHJvZmlsZQAAKJFjYGASSSwoyGFhYGDIzSspCnJ3UoiIjFJgf8bAziDFwMnAz2CamFxc4BgQ4ANUwgCjUcG3awyMIPqyLsis1Yby0tN4f8RznX0q9DlXoB9TPQrgSkktTgbSf4A4LbmgqISBgTEFyFYuLykAsTuAbJEioKOA7DkgdjqEvQHEToKwj4DVhAQ5A9k3gGyB5IxEoBmML4BsnSQk8XQkNtReEOBxcfXxUQgwMjG09CDgXNJBSWpFCYh2zi+oLMpMzyhRcASGUqqCZ16yno6CkYGREQMDKMwhqj/fAIcloxgHQizlKQODcS5QUAMhliXAwLD7GwOD4FaEmPpDoLfmMjAcCChILEqEO4DxG0txmrERhM29nYGBddr//5/DGRjYNRkY/l7////39v///y5jYGC+BdT7DQCkbl9DSywIBQAAADhlWElmTU0AKgAAAAgAAYdpAAQAAAABAAAAGgAAAAAAAqACAAQAAAABAAAA96ADAAQAAAABAAABQQAAAAAwSYa7AABAAElEQVR4Ae2dB5gUxdaGzwKiYrwoqJiQIEgQETFhzuFi/M0JFUXFfBUxR0TFCFfMWdGrmMUABkwEFZVgIAhGMCsiKEr4663dM9T09szO7O6svbPnPM9MV1fq6q/nqzp1qqdOyWInYmIIGAJFh0C9orsjuyFDwBDwCBi57YdgCBQpAkbuIn2wdluGgJHbfgOGQJEiYOQu0gdrt2UIGLntN2AIFCkCDQp5X3P/Fvn698Xy23yRhbbgVkiore5ahkD9EpEVlxZp8y8XKJAUjNwQ++OfFhupC/TgrNrajQCD3S9/FvYeCkZuRmxuYOQ3i+SBqYvl+/k2dBf2UVrttQmBpkuXyBGtS2TzNeoXrNkFIzeqOAKxH9ypvnRuUjj1o/RK9m0I1B4EPvhhsRz+8kLpu0nh2lwwg5rOsRmxjdiFe4BWc+1EAE4UWpstGLlrJ+TWakOgeBAwchfPs7Q7MQTSEDByp8FhJ4ZA8SBg5C6eZ2l3YgikIWDkToPDTgyB4kHAyF08z9LuxBBIQ6Doyf3555/LX3/9lXbT0ZNcN6NZtGiRfPfdd2nF588vW9BPiy09+fbbb2XOnDny448/xqRWLoo6aUdUuM9sbYnmt/PiR6BgL7FUFbqPP/5YFixYUGE1HTp0kHr1SvsoSPTHH3+klfn666/lt99+k3/9619p8csuu6ysuuqqniijR4+Wtm3byiqrrCLvvfeeLFy4MJV3pZVWkvXXX1/mzZsnSy21lEyePFlWW201nw5x33//fencubOsuOKKqTIamDVrlqyxxhryxRdf+Os0bdrUdzQ//fSTZvFH2kK9cVK/fn3ZZJMlbzp89NFH/l6WXnpp+eGHH1KE/uabb2Tu3LlCe5GGDRsK1zOpuwgkltyNGzeWhTEjVPRRlZQsefPtyy+/9MnLL7+8P0L0Jk2aCHlC0v/+++8+HXLTMXTq1Ek+/PBD6dixo+8IttxyS58OWaZPn+6J/emnn/p0n1D2tcIKK/iy48eP98cowbVtG220kUA+Jff3338v2gbauu666/oOROv+5JNPpFmzZp6oWoemhce//v7bawV0PHQiCO3lvqJtCctZuG4gkFhyr7766hU+AVWn9dioUSP/w6ZjgCCMkC1btvTk1sqWWWYZIZ1RPiy36aab+pG5xJGdUW/MmDGy4YYbarG0o5YjkpGya9eu/hqQPBQ0hj///DOlyqM2L7fccr7ezxwJF7vOq1WrVmER37nMd9MICK/C9ehofvnlF68BzJw509/DQqfZLO86mJ9//lkaNGjg0/QaqO6EuReTqiFABzt16lThN0mHHidocUyZWrduHZf8j8T9o+QOSaJ3/7cbjfgh5yMQBpW5TZs2nkxjx471c9311ltPIDyCiv+pU31buLh11lnHq+DEM4JCSggaCm3T9kWP5EMlVk0BNX2ttdYq1xkwteDHsPbaa4dV+zDE1nrDRH5EDd29QFg6IRXy6nRBpyuo83zQOFTQElSyjfqax44VIwD2TI+YOnXp0iW2AGk8r7hn+k89hxojd9xNx6EEsSdMmJCWBOERCBzKIgc60qF9+7T5MyrtBhts4EnLdZlLT5kyRVq7UXLNNdcMqxDUYuKYazN6QzpE26vGKz3XI50GPTkagHZGqP5KQB4oPwg914tSH3N8NX6hotOxMMISZrQnjHr9y6+/SssWLXxR2sln2rRpvrNgzo1mkmmu3t5hEsVL22DH/BFgoPjVPQ/wZhAJhTimd+SJE/3NhGk1QfiCkLv0ZkpJUiJLRsDw5jKFV155Zdlmm23Skt966y1v8GIumU0AGIIyktOGVk5Fmug6is8++8zPvSEH8VFgmzdvLqjrqLa5CtfggyVerfF0IKrucy3aq6Os1ksb6XiYg9MWRnxIiAbxsZtKQEpGb45vv/22rOJGAzCJE+qmDdQXCp1j9LphuoUrhwA4jxo1yhs01VhJh8yzVDtNrjX732GEG9HfZa51ZcqX+685Uw1l8TQ2TSKnaWl5nLD0BOlCYtODMteNgsG8hzRGPdRmfvgd3bx5OTfK8gDeffddTyjKYj2HWKi1SFg/o2207lyajGEOyzgjebt27eSrr77y04NoWdQ31G4wI4xm8sEHH0g79+PR9nBkPj5p0iTp1q1bxvYweo8bNy7tEqpJpEXaSZURYABgdYZOWMlNmDjSqiohhyrz+4tev8rkDhsUVl5N3PZqaFQNYiRG1WbEVYEsEyZOlMaOtKjMEA1yq7Rw6i1z7dmzZ3sy/e4IGI5uLGmx5IWgMqP2VlV0uaqierDE82PhQwelwv2xnDbLGWqalVnDNU1xZzUgnHOTzr2YFAYBnhEDCKsrCM9FiV6dV9TnWxWSV5rcevEKb6gKLGfki47aXA+yYzRj+UdJyAi43bbb+ua88cYbftTE8h2V+c56va3LF/a0WLQZ7VB/GdUJL12mpkfXx6P16TlqNap4KBjTdAkO0tLW0HpNGsQmX2gdD+vAgBOWIY3OjeUvDHVYaNFSQqHTylRfmM/ClUOAQeCdd97xhUMDZt615cAN5VllSJ43ufVied9IngUYPVku6hq8wKFVQKLVnDGLOW501NI8W2yxRRqBNR7iR+Ubt7SkS28bb7yxTHQaAKSGkCxtMKduFjHEhXXQGbznVONty2wFqPXMvSEl94HaDQk5pxP63L1NRjqqN8Smk8r08JTYaBxY38mHoY45OeW32morr5ajujNXZ06POk+beVaZ6g3bb+H8EQD/mhTlXT7PM2dya+U1cUP8MFEtMSYxIjKvZHSFKKRx5BzSYKGMjpi0kTR+6FFRC3t4P7McuekkiGMUZD0ZNV7VW+bja7jOhGsjYVnaQn5GWEZU1qAhN6MndTR1y2TEQWZdN0dDoPdX4kbrjDsn77pOTW/q1HDIjdAe3lgLR2naxucr92ZefXf/YZovZF/lEMiHMFo4nPJpXE0c9beXS5tzIrdWWMjGh9eAMBAEtZURD3WWD4DyI9fzGTNmeEIpacL2YaCKAwC1PLwWozPnvNHFuvUMN6p2dmvFzNtRuVgiY6mKNPKG6jzXoy2kMwLTmbCsFuZp7l5G4YUY5mW65q7HsL0aDtumcRypkw4GoeOC1HQq2BF0eY96WZahQ2ReiN3BpGIEMmFeccnMOeJ+e5lz559Cmyu6RonLlFXzryA5Y6vGzCpdCtv7pYXyXY8l69OVrS/uQoxcfKIjN++To2bHLW3FpVEHnYa+Px6uD6Ny06lgsKPDYdQN0+PaFY2DjLmWIS/X0vfXo3XpOZoAUwcdxTWe9qI10OmEnYym2/GfRSAk5Gr3/p3Gjcq0LKwvWj7jyF2dJKzOusIbgJB8osISVyaJS9M64kZUVb+YK1dWciU29ZO3ImKTL1y641xF26vndkwWAtXNBa0vjuQZyV11SFQh0GPVa7QaDIHiQmDJC15x5KzqvcaSW3uDylSeKluqlVemiqxlUvVnzWWJhkBhECgECWmp/q4rWz/lo2XLkVsvki800XI6XufCccrqO9z5XtfyGwJJRADjapRs0XbGcUN5VFHZaF2cUzYslyK3VhpXKFtcvuUwSpkYAsWOQKbBKmoAzYSD8ioka6a8YXxYLkXuMEOuYa0oW35njvc9SqabzVbW0gyBYkNABzc/sjtuVCRwLF+Ca52e3LmQVAtwzC2/GgvyV7lzqz9skYUNgX8egXxIWDrYlf5HvyIVXvmQT/2UaaAFc4Uml/z0TqV/9RRp6pa4P/xxsWy0aknsJeLqi4uLLWyRhkDCEchESDgBNxDVaitS2eFFpvpKa0r/zkstr4h0qnJwiRXd8vOvzv/woa3qSY+XF8oPqQ1IVRUpPZboaXq77MwQKAoEFqfGNA2UHps4fsCNUJQ/2UieD8FLXK+RE72yEZs07X20sXPdxqUfu96ptHYuUXYZd3DZy0lMlMsTZ08sV9QiDIF/GIF0ktIYpXLYMPefnyCh9GSzNeJyin+VOdsonS1Nr5kTubMRW3sbrTA8zl2wWL6Zs0hmuxF8YYSnS8hMQtnZksiwmlRyeqSdGQL/MALxvIwQuJT40az1XfRKbn+H1itnXzLLNopXRPAKyV0ZYlMmUzmN12O2x5NLnmzlo9pEtryWVncRwKBVFamIZNStefQYvR7xmdIqS/BKkzvTiA0h40gZFx+XT2/aiKlI2LE2IJCtg4iSNhORM8Vz/5kIHq07xCqrQS0T+bLFR9O4af6dla0RYYMsbAjUBQTgCf/eCwcx5U4cV0jLJx4MM+ojeqEo0MSHDdJ04sMyms+IrQjZ0RBYggBEhRtwKcqb8FxLRPNpPMe4/MQ34L/DcZKpAPFxaVHCk4ddT9Z0e4ibGAKGQHkEdCRWPmU6L18yt5isanlcFdqQMC0TscM8FjYEDIHyCPzsdtNB6sUY1OLm8XFxlNeOgbBKA6lffrODOAJTYDGL1vXS16vIu7jeknUuf87Slns7xSWZGAJ1HgF28R0+fLjfEgww8F+3yy67+N1rF5dgj+KNjlJreUjSxSXll8kW0wnUiy6sla4Wh2W5TsmPv/yWTkHISkpEIHaU9JwvWhwhdhmjPcldeO1mpe5uI9XZqSFQJxCA2Lfccovf9y68YXbcOfHEE50ZvKEfdZWYHDVM/noxBPd5YgjuKU9PUSblDGpxxNbMaccyEi+JW0J+7QQWL7K/dy7Bx0J1EQFGbPbFiwpxpClHUpzxvIqwsBzXorWVnkdKZbaWh8VjR22XIRy19S1WbeQiZ+bPsU3hpSxsCBQVAmx3nUlIgyNwBUlxJ3gjHI5FSUs+P0XOVHFZfPrInSMbtRFa9+JANfdxZQ2K5tP8djQE6goCcaO23jtpnqhERDgU5VTOXAo4nEbuaA/hGxH0IqWNKs0VjtpaX2kDWAf3rU31RKXl7NsQMASiCGTijHKK/Eu4FmFoOW6WGtb0Gmnk1sjwGKnOqxFp6WErXIL2MKXR0dJhSQsbAoYAdFQKKXcUlfLnmlJ6rIhdS8itV0gv78+iFwmzaJo/ujpKtYtSC7rOw8P8FjYEDIElCCzhiJtbQxs4VMZFPS7JvSSULU17ixS5Y3uB6LAf6QCiF9A6SrO5Ri5pi4UMAUMgBoFSjgSjdyRPlGNK3FS2KEddgvIuRe5U5iCgmTRKz5fMATRF1XHN4faGirnoktw1EwKYwYMHe0eCNXFFrnf99dd7t0Ncb/z48dV+2aeeeso7QYxWzFoqftVMah8CpVxZwp1yhHa3pJzTXHqX0XON59hAFpbtfxQZlX0mjYscdUdTlstTDXH7pml4sbOouf+SyqIqbGN87rnneod2vh1ZvgYMGJDyifXqq68KvsBCefzxx+WTTz7xzvrCeNwK7bDDDj7q9ddfl2eeeSZMzhjebbfdZOedd06l33zzzfLdd9/JZZddJl988YUMGTJEzjzzTPntt9+kT58+su+++8oJJ5yQyo8XUa4XSvPmzaV///5hVCrMyw6PPPJI6vySSy4RdU/MOqn65ob0LK107tzZ58WP2B577JEqZ4FkIrB4wXyp57y2Lnar0iX1HIecal76EkupJ1d9ocUf9QUV//9zNy67t9uySQN8YCkpw4xhXPQfKfouOXn4hOeal3j+0lZZ2Xzzzb2r3orKh3647r//fg8Mr/chs2bNkm233dZvWYOXTpXS9cXFKXLjgVOdqF933XVy5JFHShPnKleFuB49esgqq6wiqztf2qG89NJLcuqpp/ooXP62a9fOh/EaOnToUOnVq1eK6CTgmfO1116TadOmedxw5cv1zj77bF+OLwi8zz77+Dbpw00lBgE8eY4cOVJ4C2r33Xf3Kbfeeqsnf5zn06CoBROCAI4l9Z+TPGveHddnruHwnGazl8Ic58k1qzj+Zad+WemQ6JkqVKJrupJcz/M97r333vkW8b6oITMO6Rn5cZ0LucI/ujdz/1Lbcsst00bPDTbYQPggjMTdu3eX1q1bp65PHO1Zz/kCDwUt4dNPP/XudKdMmSKvvPKKd0zIVEBls8028+5/b7vtNt8WyEx9dBisc/bt21ez+iMdBB3A8ccf7x+0Jk6dOlVGjx7tvZrSadD54VK4bdu2grtiXAhTH2W5Bm6Qv//+e+86WOuwY/IQ0MFRf6PKNSV0XIt9XkdeFV5oib5vTmpO5NZK8jlqI/MpQ17U2Y8//jivYvzA6QEvvfRS+cY5ut9vv/0EMkCQNm3a+Lr4a+vVV18txx13nBx77LGpUTuvC0UyA/K1117rY/ElPnHiRLniiitS0wTNTqdA75yLXHPNNbLSSivJ2LFjhY5B/wVEb801kD+dj3Gu3apVK3++ySab+CNfdBwq5sJXkUj2sbJcqeiuYn9x4cVU5daKwrQwrOlVPULs//znP2nVQHgEVTdOrrzySq9+86Pf3xF7zz339EQ//fTT/Wi2zTbb+JGS84MPPjitClRbRlwV6nj55ZdlwoQJGuXJhPqtqvqOO+7oO5M1nIq+1157+XxMCRgxDzzwwFS5uAAjKpqB/o8eOwHzdFzyvvDCCzJ9+nRf90033eTJfcYZZ/hq6MD4YDg7/PDDvZvfN998U/r16xd3GT+Hz4RXbAGLTCQCcExH8TBMY6Pn0RvI2ylBtAI9D4kehjU91yPq5ttvv53KTl2Q6YILLqhwtGWkgigtWrTw85LTTjtNzjvvPLnjjjukW7dufhRnBFQViIugxj7xxBOp6/3u5jIYvMI8EHLEiBGpEbnTRht5AqYKuQDXhZgdOnQIo30YAuo0AxsBc2pUa9py0EEH+ZF68uTJftS//PLLfUeElkHHsfXWW0s4MoeV/zp7tp8qYMwLhfvmPkxqDwIhUcNwVe4gduSubIVVIXWmaz777LOy/PLLpxH7vffe81bhkIBoGMx/SWPUo4PACg2xMLA9+uij3iiGka99+/bSpUsXOeSQQzw5HnroIX95VPqdd9opzTpNAh0O6nd0zq1t5ppYyhkpGcGxxCOo0YzSaqwjDjWbOT/zZ+bIhNEemELQga2zzjpk8/YD/hJ4zjnn+H8PhffqM5R9vfPOO36aEcbRFpPaiUClic3Sc+RvoHmTO0rgqNpenZBS96BBg8oZnSAvpPD/hy27IGTB4rzxxht7Ytx4443+qO3p3bu3J8G4ceM8mbCYz507V5P9cYJbl15zzTXT4nI5ue+++7y6v9pqq/klsQceeEAYoQcOHOg7oXXXXTdrNYy8aCdYvFm2U4Hww4YNE5a59t9/f432R0Z9hCnHDTfc4MP6ddRRR2nQjrUYAX7/anPhNkLi+3AF91YhuaNkrqC+ak1mRGU05Icfyvnnn+/JxA+eZSwEtXvUqFE+jLWc9e0QGJ/gvn788Uc/x1577bU1KnXEIEbnkI+w1oyWwPIWGgaGMAx2rEW/+OKL8uSTT2as7ptvvvEqOnN1DH1Rof1oAqxZh8KLMozOh7m5N7YA1Hadl5GPTqtnz55hEQvXQQQqJHcmTELSh+FwJA/jM9WTKZ4XQ1hSUpU5zIdhiRdJrrrqKv9GWJim4ccee8xvY6PneoT4cYLRjjIsUeUqM2bM8NoCWgEWboS5Mi+PQHg6ITXCaZ0YDFkWoxNgpMeaj3U/k9qtxGa5C7UdqzudCFZ1VPhOG27opxvYBLg2GgMaDLaEqH1B22DH5CAQciQcqYnXDjsMZ2o5S18lkcS8yB02JFJPtZ7ywzzmmGO8tXjSpEl+VITsjLr6YQ0XQqKah2vS2hDSmMtGJex8NA0LOVZp5saoubnIvHnz/Lr1dttt5+fLP/30k/ACCW+TMZIyctM5oUEwKmMcYyRuuPTSXlXH0Ae5cxVeoOnhXqTBMNewYem+d+DEOjlquHYO+ozuueceadSoUdrbcbley/IlF4FciK6tz4vcWqjQR4gM4VBbWR5i9GOpCMMYYUiBOs6aLioqy0NR4ZXPuLVlOoeoMLdllAvXiKN5oucffvihN5xxfdRvlu8YhZn/7uSMcsihhx4qd955px9R0QhQoVu5e+CTrzBKq7GNjotlPZbrsLazNIaAD6M3hkU6Reb8JnUXgRL3o2ZETxPt/YlUww1h4jVNw4yEGuaoIyPl+OQzOnGNfIT3qhm9mLOGgkGL1zd5aysqcWmo11jWVQ2KluFNt06dOsmyyy6blsT9MWLShs8//zz1XndaJndCPjoDLPQVCdrGm2+9Jd3//e+sWVmbx6gYbdM0Zyj8zS2RsQbPx+SfRSB8rTiuJWeddZb/DanmhXbH71A/4TnlNZ7fXEn9pdN+s9G31ApCbgiun0KSOw4sizMEkoRALuSGwOFHCcwxO7nZOdX9gaRMouRekqI57GgIGAJFgUA5cqvaXRR3ZzdhCNRhBMqRuypYWMdQFfSsrCEQ7I+QCxjlrGXphapMbiN0OqB2ZghUFwJV5VaVyV1dN2L1GAKGQPUiYOSuXjytNkMgMQgYuRPzKKwhhkD1ImDkrl48rTZDIDEIVOr103wm+l/8UYFJLzFQWEMMgepHYM6C6vn9wzleagmFmtNjwlT39+70UzszBAyBYkHAyF0sT9LuwxCIIGDkjgBip4ZAsSBg5C6WJ2n3YQhEEDByRwCxU0OgWBAwchfLk7T7MAQiCBi5I4DYqSFQLAgYuYvlSdp9GAIRBIqa3D+6vdjuuPFaeX/s6Mhtp5/++P136REZzr76fIY8et/dsuDvJd5Lp3yS2a/ZbdcPkNdefF6GPf6o25mmdJ/xDFXnFP2b24LpwdtvkS9nTE/LP+e32XLrtVfL2DffSIu3k7qNQKXeUKsJyHrss3saiTJd88Z7HpRVm5buIjqw/2Xyq3P4p8LeZSOHvyivvDBM2m3YSaP9cWXnuvjUcy+Sn92GiUd031X2Pfhw2WP/A+Q/PY9My9eo0fIy4Pa75YvPpskvbofTm6+5Uv69/0HSYKkGMmrkq3Luyb2k58mnyxEn9E4rx8mLTz8u3878Wj54Z4xMdZ3A6RdcInQGzz46JC3vWuu2kDtuyryl8rDR42Rp5yrp559+9PnWWHMtWWe9FnLf4EHy4w/f+T3shj0xVEa9/qq89epwX/dKK/9Lep6W7nMt7aJ2UvQIJJbcG3TslLY5Y6YnsbTbKljljZdH+DItW5e6sJ3rXNx23aKbT2bUU/ls6hS/KR3kbux2Ve11xtlyU79L3et9It+6HVePOP4kWdltJfzx+A9k9Bsj3Yj4utxy7VVy+vmXaBX+uOV2O8ghPXrKnYNucPlXlQ27LPG2SQb2kaPOo3uf5rWHv/76W37+4Xt59+23HFF/8HU0XqWJrNuilfQ48WR/vsh1SPfddrN06rKpbLzZ5j5uqYZL+WP0a/avP/vRmnujLY7l8tzjj0lzV197t02zSd1GILHkPufyq/J+Mqu53T7bdugoex90mFxw6onyxfTPHOEOT43sVNhoueVlXbcF8KeTJqbq33H3PaV123Z+J9EH77hVWrjO4Zbrr5ajTjjFkzuVMSZwwlnnyEaOhM1btJTTjzkiLcfvbgvi0c6p4MdlHkNnff2lbL7NdvLI8JFyhsuL37JB9z+cVmboA/c6jeVvN8pf7EdnTfzoww+cBvKsP33z1RGy7HLLyb8aryot2rSVMa+PlJZtNpDZP/8odA4dOneWpqutId98+aWsWeZ7TOuxY91BIHHknj75UxkxrPRHnOtj2HaX3Typb37wUXn5uWfk+AP3lT/mzZXVnd+vZRstJ/Oce52ZjlivvfSCbNSlq9x03xK1eIwblS/9z2ky4La7pZ7z5oHMn/+XfD9rVtbL3zt4oDx2/z0+T7tOnX35R156La0MUws6iosG3JSK5w8A8+f/6Um4aPEitz/7H7L00sv4PwXM+32u3O9GbeSHb2dJPbdt8lrrrOvPv3fn08r8iH3tXAkxnVjo5vFt23fwHzL9y2kPR/c+1ecnzaRuI5A4ck+bOlmG3HVbXk9lDedVkxH7J6fyXnPxucIcdotttnX13C4TPnhPNttyaz8/7rBRZ7nqljvT6t6021ayQYcN5ZwTj5ULr0l3qJeWMXKyXsvWssW228uH773rOo9Sd7mvu87jl59/8jkbLNVQlnEeP+bN+yOt5A/ffSsH7Lh1Km7XLh3l7seflZZtN5CbB/ST2W4/aqRf37NkzXWbp0b27XfbQ9ZzHcVRe+0mhxzdU3bcs7vQwTxyd/r9aMXHnHK6jdoKRh09Jo7c2++8m2zctXSuyTNhxOp9xEGyx777y9EnnRb7mFYo89O1SpOmcvUtd7uRrKNMGv++jHtntEx6f5z/1G9QXzZ1JJ/80URp066jU2sb+brq1asvVwy8Re6/9b/SdPVmsfXHRW676+7Cp2/v42XO7NL5/L23/Femu84JWcY5MOjYuYv86dwOhbL88ivKkb16y4jnnvZz8l332lcau3Y/OeRBeW7oo57AM5xN4NhTz5BrLjpPnnn0YdnrwEPCKlJh1PdlGi0rp513cSqOwNUXnisL/vorLc5O6h4CiSP3Us5AtmrgQ+v+2/7r3QId4yzSkBeZ/NEkWdl5vlyt2RJ3u8yhhz3+P5k6+RP5fMpU5xt7nqzk8ux14MHSbO115JXnh8ndN5eqx2zkzmjf94qrpNMmm0qj5ZeT/zuih3NYP8fXP3fuHGcNjzdi+QwZvq678z7pf34fp9LPlGtvv1duv3GATHOufULhWhB30ofv+zk34XdHvSWDrr5ctt5pZ+m86RYy8Ern0teNzC8+/aTcdv010m37HVP3HtZF+Neff5EBl5yXFs29mxgCiSN3+Ei+cyR54aknZM/9Dkj9uFljPrvX0cI896qbb09lb+BG5uHPPu0MS22lmZundurSRTbevFvKjS9z0a8+n+7V6EZutJsz+zc3J1/Ll5/v/JId/u9dfEdAxIwpk13n0ThVd64BLO9LL7O01G+wlDRZfXVnyFtd3hv9doXFH7n7DqdCrysXXH29PP/40FT+My+8THr+X3c3pXhNuh9wUCqewMfjP/TnjZ1Vv2+/a9LSLj7zlLRzO6mbCCSa3IMH9PceLY86ccmPlfXlAw7v4ZefeGljs6238U+ulbN2v/DOePnbqaO7dOkgn7kR/Amn6sZJv0G3ylY77JRKevPl4d4At8kWW8nrw1+QL93LKqydQ9b1N2ifypcpgJHs6f8NcVb6Q9OytHIdDevuGMrGvPGadN1qa1lhxZV8noXOUv71l1/4OfQW22wvZ1x4qSyzTLovsvVat5Z7nno+ZTX/xRnRkBuuuFiWX2FF2cmN7j/9+IPv7HyCfRkCAQKJJTfGqZHuc87l/Z0VeJVUk1k73mGP7vLwvXfIoKsul67dXkqNzvhVUjnqhJO9aqvnHGd+9aX0Pam8k/vhzsLecv22sqkj30PPv+pG8Z1la0d+1rxvuvchd/xazrrkiowv1Xw6aYLMmDbVk9vxXObOmS133nS96yCa+nn1hPff9fNp7ABtO3Ry7b5Cfvv1FzcdWN6/XLP9Hv92RsDmYVNTYV5WQZh7X3fphT68jlt2O+CIo6Xjxl1kjltue+GpoXL14LvkjoHXeeNen8uukrluioGWQ2doUjcRSOSTH+dU2X7nneVGpxXkI/ciyesjXnKW8B/8KDX7l59k4YLSZZ65c373P/p9Dj6s3NP7/rtZMvXjj9LieZsrKr//NkfGjRnlXlw5wY3e8/yc+Ufn+7t1uw7OMNVXZjpin9znXK/CP/7Q/dHi/holJfXlrIsud2+3HZVSw59/cqicedFlfv35YWe15820I0/s7QxtjWSH3XZ3msPO7iWVLZ0KX79cnXERHTbq4qcN+x16lDO6tfZtHf7sU/LSM0+5N+YOlM5urX35FVaSP+bO8x0Gy3Cdu24mp51/SVx1FlcHEEgkufHNPf/P+bKUW04a75aaGrv123XWay4bbbq5NHHqclM3n22y2upy5blny9OPDJE4cjNX51ORfPjeWNdZLHAq7l5eE3j71ZedinyZ7NJ9b/lr/nxnrDpfurklrwtOO1H+/OMPr65jFFNZ360zH+CMcRtvtoUs7Szku++zvzfSMedGFvz9l1x85qneCr6RIxvCsl2+0sK5Kf7PxVf4Yrzj3mNv93que2Flx933kGNP+Y+Pb7l+G/fG2kjZqXN7Nz2ZLwcffXy+l7H8RYRAORe+0Z1NeT9bhTT9EEdY0wmjMutRXfj+uWKphVvryOXInywWOpUSy3k2+fDdsY70Lf3cWPMxqt/p3tPexi2pbbDhhhrtj7+6NeT/OePVbvvu7175bJlKm/nVV86ivrbwR5NfnWbA/F1l0gfvuze+NpY3XxnhX4bZZIstU8Y98nC/0V0ptaweJ457z4/gYaegadEjI/yYN0bKYcf2yjqq82eUrt22dh3dEh/cYD7x/fe8f+6mazRzS34V2wui17fz6kWg/3lnZ63w0r5nl3Pfq257KYjfbv19cdQP/rmlXsPUlJS8URe+iSQ3DTUxBIoBgX+S3EssUMWApN2DIWAIpBAwcqegsIAhUFwIGLmL63na3RgCKQSM3CkoLGAIFBcCRu7iep52N4ZACgEjdwoKCxgCxYWAkbu4nqfdjSGQQsDInYLCAoZAcSFQ8NdP1102mwfh4gLT7sYQiCKwQoN/7vdvI3f0adi5IVAkCBi5i+RB2m0YAlEEjNxRROzcECgSBIzcRfIg7TYMgSgCRu4oInZuCBQJAkbuInmQdhuGQBQBI3cUETs3BIoEASN3kTxIuw1DIIpAUZObLZAGDx4sPznXuzUhXO/6669PbT01fvz4nC47z23MePvtS/Zgz6lQnpmeeuop55fsz3KlbrnlFvn222/LxVtE7Ueg4G+oVRaic88913kAKfXBla2OAQMGuP2+l/FZXn31Vfn666/Tsj/++OPyiXOg17Vr17T4tZzHkR122MHHbb311n4vNM2wyy67eC8nzz//vEalHc877zzZY489fNzNN98s37m91y677DL5wjnoGzJkiJx55pnym9tyuE+fPrLvvvvKCSeckFY+ejJ06FB53XkDPf74zBsa/uB2fyVPKM2bN5f+/fuHUanwUs5jyiOPPJI6v+SSS2SLLbbwWA0fPlyoD4H0n332mXR2nkGRfzkvLXpvPsK+ai0CiSX35ptv7rxhzq8QWH7EKvfff7/fQK6lc9GLzHKeOrfddlu/idyXzp2tCj9mRlklNz9w3Okysh1zzDGy6667Srt27aRnz56+yFVXXSXrOFe4hx5a6nRgpTLfZCS+9NJLcuqppZ4133//fV+O+BVXXFEgba9evVJEJ54NJSF/KO+++64n1WmnxftCo6Ojs3jttddk2rRpfiPK9d1uqEceeaScffaSDfgg8D777CMbOd/cuqleeB0N/+r8eY8cOVK+chtD7r777j761ltv9eTfMLKppJaxY+1DILHk3nvvvfNGc9111/Vk3mqrrQRCjBkzxpOLHSRVmjVrJltuuWXaKPjxxx8LBG7kvHJCxs0228x555wnV199te8Yxo4d60e6b5yTghXcXuoXXXSRrw4t4VPnC+yjjz6SKVOmyCuvvOI9pDAVUKEuOpbbbrvN183OlkcddZQmy4033ijt27eXE0880edbzvndXiVwwkDGlVdeWVZ3WyWjJVx33XXyt3MA2Ldv31QdBOhY2BGT0T90zjB16lQZPXq0/OU8sdDZ0GnOmTNH2rZtKx988IG/H+qjLB0GHer3bt/2ps6hgkntRiBx5GaEgmz5CD9UCHDppZfKNzNnyn777Sf8qPmht2nTxlf1s3PrA1mPO+44OfbYY1OjNj/sTp06ySmnnOJJC9FoAyPsqFGjPDFQuyE+ozsqq5KbTuPaa6/19f/h9jSfOHGiXHHFFalpgt7Deuut59V8zhlRN954Y5+ECs/o+eyzz8ryzvsI56jHO++8sxbN+XjNNdcIGgUdER2KEpz7oG0ImgltbtWqlT/fZJNN/JEvOg4VnebouR1rJwKJIzfE/s9/SjfZV0ghG4KqGydXXnmlH7H58e7viL3nnnt6op9++ul+lNtmm238iMf5wQcfnFbFY4895gkJCVDVDzjgAE/it99+O5WP+hntmYuHssYaa8hee+3lo5gSMPIdeOCBYZaM4Zdfftm3cfvtt/dGPzKiAWD8Q0NQQYOhg2JE7d69u9BJIdgX6AxWdf7MXnjhBZk+fbrv4G666SZP7jPOOMPno+Pjg+Hs8MMPl9WcB9U333xT+vXr59OjX8zhM+EczWvnyUYgceRGbQyJBeF23HFHueCCC1KjbSZIGXH4wbdo0cKPvMxhMX7dcccd0q1bN08SSByq6cyj+VDuww8/9CM45cK5fKbrhfGUh2AdOnQIo30YIoXTDOb4F154oW8n81+1LeBUAO1Az5ljQ2w+tIc5Nao193DQQQf5kXry5Mm+c7r88st9B4Z2QoeDkTAcmcNG/Tp7tqBNYAQMhfvOxYgZlrFwchFIHLmjUKnKqsYv0t977z2vvoYkhRjMf0lj9KKDwJoMsTCwPfroo9KjRw9PHlTvLs7F7yGHHOINZeE1n3vuOU+MMI75qqq5YbyGuSaWckY8RnAs8QjqMKMtBi6Vt956yxN74KBB8oobvSEZ0wTkrLPO8vd12GGlvs9muimGGsa4PtoD82emEoTpGJh60PFh8EOwOzB/P+eccwSreIiRz1D29c4776Suq/Hcg0nxIJBockPYQY4EUeMR5OXHzY9YhR89lmPms/zAMVRxVOndu7f/MY8bN86TAov53LlzNTl1hIzRUZulNFTaTHLfffd5dR+Vl9HwgQce8HUMHDjQkzVsB0ty5KedkLsqwrXQarB400YVCD9s2DC/zLX//vtrtD8y6iNMVW644QYf1q/Q0Kdxdqy9CCSa3A899JAfDfkBh3L++ed7MvHDVasuajcGMARrOevbcaPtj87HNVbttZ1vsDjRUZdREcFyjNELVT9OGB3RElChMYph0GIkZk35xRdflCeffDKt2NLO/5ka1NIS8jhhTo6KzhwfA2FUuG80CNasQ+EFG0bnw1xHxRIeartqBuSjs9Plv7CchWsnAoklNxZqlpQgeFQwEGFRZvmKH2ycYCiLIzDEz0VY8mKE5cUR1n4xgLEcRZzKjBkzvLaAVqBr38x5sahDeDqhJk2aaPa8jhgHqb9hw4a+HIZGltPoPNAQmIezKpBJ7VZis9yF2t6gQQPf+WBVR4Xv5O6JacqIESP8KgLaCpoPS2JRu0ReDbfMiUEgkeTmB8bLJCzpTJo0yY+KkJ1RVz+MqFjRUc1bO3/VUSFNR98wDVU/F4E0rE/TgaDiQ15GNVRhRkzWwVkT32677fy8Fys3L4LwVhgjIiM3nRMaBKMrRq44TSKuLXfddZeg0mONZ/qBNHQjPstkGAghd67CmjkkxqCnHQX4MtVBDdfOAcMlcs899/hlv4reqsv1+pbvn0MgkeSGyIxcqJ8s8zD6seSDYYwwP27UcdZmGblZ5okKP05Gq6jQOUQFSzMjrar/GMJYMpvtrMrM73W0v+vuu+VY1+mwpk4ngQrP9VG/Wb5jNGUeu9NOO/lLYIW/8847/cjIyyeowqyXqzCyxxEetV6NbJq3lbt3PvkKo7Qa2+jwWA6cMGGCt7arHQFc0TgwSNKZ0rGY1H4ECu7CN59RJl84eT9a36wKy2LQ4jVMVOuoxKWhmkJWXlXVFzhQZ+Ne40RVhiyMeKq+0obPP//cj6zR63FOPpbZsNBnE2wGdF5xmki2cqShpbzpLPHd//3vrFmxN6ANLLvssmn5pjkD42+uM0Nb4GNSPQiErwfH1cgKCR28frCBEFZbCL8zDXPUD7+5f9w/dyHJHQeWxRkCSULgnyR3vSQBYW0xBAyB6kPAyF19WFpNhkCiEDByJ+pxWGMMgepDwMhdfVhaTYZAohAwcifqcVhjDIHqQ8DIXX1YWk2GQKIQMHIn6nFYYwyB6kPAyF19WFpNhkCiEDByJ+pxWGMMgepDwMhdfVhaTYZAohAwcifqcVhjDIHqQ8DIXX1YWk2GQKIQMHIn6nFYYwyB6kPAyF19WFpNhkCiEDByJ+pxWGMMgepDwMhdfVhaTYZAohAwcifqcVhjDIHqQ6Coyc2mf/n459ZNAoGXDRhxu5Ov4FKYPeAKJeZnu1DIFl+95XcQTMg91qR/bm6Zfc7YsXTIww/7jQjZKPC///1vOe8jFcHDLqjs08beWHFifrbjULG4QiCQWHLXpH9ugGXjQCSfHUbZyli9Y7JbKw4HdDM79jfH5xf7gbPhHZ5McCjIxnbmZ9tDbV8FRiCx5A4d5+WKAW572ME0X//c1P/EE0/47ZLVRREjLN459FzbcMQRR6T2Emf7ZN3f+8gjj/QOBXfbbTefFRL/2+1ECpF1v3AS2PPc/GwrmnYsJAKJIzd7a9ekf27AfeONN2TKlCl+j3RGXwQXuajlcXui+wzuCxUcpwMI5W6//XbvyIDz8ePH+73W7733Xk79fuW6T7iPyPBlfrYzAGPReSOQOHLXtH9uRtg+ffp4ryJK7FxRnDlrlu8AdL/zNddcUyZOnOiLo4qzv7meq89r87OdK7qWr6oIJI7cNe2f+9tvvxVUaa5bGWncuLH3RJprWfOznStSlq+qCCSO3NEbKrR/7g022MB7zPzf//7nndjr9bGeL1iwQDp27KhR/jhy5EjB/1ZlhREdjx/mZ7uyCFq5XBFINLlr0j/3nnvu6ZfCFLgxY8Z4j57RObd6zyTfLz//XM5NrpbP52h+tvNBy/LmikCiyV2T/rnxrc1HZdq0ad5Ipk70ND48Yk2PcxMc5skWNj/b2dCxtKoikFhy/9P+uXMBtjLkNj/buSBreaoDgUSSGwt2Tfnn5pXTOLe+LMkx52a9Oyq48GXuPGzYMP96azQ927n52c6GjqVVJwKJJHdN+ufG9e3OO++cEdO4NF5C+f33371K3rlz54xl4xLMz3YcKhZXCAQSSe62bdumXgfNdtO9e/f2r3NG8/Tq1Surf25GXhUMZPjOzlcY8du3b59vsQrz4xv7lFNPzZqPNfPDDjvMv+kW+tk+6KCDpMsmm5if7azo1Z3EErfkszi83fCfUcSzJKRCmn6II6zphLFu65EwH/PPrejZsS4iYP656+JTt3s2BAqMQFH/n7vA2Fn1hkCiETByJ/rxWOMMgcojYOSuPHZW0hBINAJG7kQ/HmtcbUeAPwplkmxpmcrkE2/kzgcty2sI5IlAy5YtM5bIlpaxUB4JRu48wLKshkC+COyyyy5+q61oOUZt0gopRu5Comt113kE+GMRW3XxYhaE5kOYuKr86SgXYO0lllxQsjyGQIEQ4FVr/qegHzbYJKwbbdavXz8VJk4//P9C6jX0ebVpJfVKNOiPNnKnwWEnhkDxIGDkLp5naXdiCKQhYOROg8NODIHiQcDIXTzP0u7EEEhDoMGF492/vtL/F1Z6mopb5NMX+XMXJrXsj2TuP2DudJGUuGjCJYsXun+CkdH9W8z9I6xkwUK5frW069mJIWAI1BACDXquHxm8HTk9j7UBjrj6p88SlwCJ+VunC8gijk4cv1N/BfV/A+Xvn/QZ6f8m1RrtaAgYAjWAQITZNXBFu4QhYAjUCAJG7hqB2S5iCNQ8ArWG3GyF9MEHH1SI0Ntvvx27qSFufO65557Y8n///XdsfDSSOp5//vm06Gy+uJ9++mnv9wy/Y9Ul5p+7upAs/noSuYdaFHZc5d55553+7Ry8ah577LHRLKnzm266SU486STZfrvtfBxbPfHGzx9//OH9eh199NGpvAQgLN44L7roIu+L+5BDDpG//vorladdu3Zy/vnny1dffSUrrbSSd8O7xx57+HS2KaYtt912m2y44YapMhrAWwp1468bF7+UM//cio4dC41AosnNDqPnnXeefPLJJ96bJkQ96qij5LPPPpMLL7xQws0B44BiVN1rr71k7Nixcck+Dud/ePM8yXUI1157rUydOlWefPJJnzZjxgzvB4z9yS+++GIZOHBgWj0Q/8Ybb5RTTjnFp3Xq1CktnVcHkcGDB8sjjzziw7w2aP65PRT2VWAEEknuWc57Ju5whw8f7ncxZeRUD5z49Lr77rtlxx13lF133VUYifEKMnv2bO9Pe968efK5I+UM56u7UaNGKfiw4rMP+ZAhQ7znza+//tqPqGTArzeEXmGFFfwov/rqq0v37t0FLaAi2WyzzQTPKMstt1w5X94fffSRcC8vvfSSrwaXv+afuyJELb26EEgcuRkl9957b8GXdZcuXeSJJ57wn7lz5/rlNnX5gxoMofbZZx9hHkq566+/3qvPkO3zzz/3ozHqMDtQ4sAPFZx8jOanlm0fPHnyZJ+PTkNf1gdc3dU1E9B0PA8++KBPxkvooYceWs6XN66BO3ToIEceeWSmasrFm3/ucpBYRCURSBy5GUXfeOMNUX/Wel8DBgzwc2FG8VDYuxz1nNF76623lgMPPNDPuRu7/chx7oexrGnTpl69Ju+5554rOCJQlblNmzZywAEHyBFHHOFV/7DubOEW7k/4zKdVxSbvl19+6ef2hOs3aOA1BzqlUOhg0Ap+dk4EEYxtaBOrrrqqvPDCCzJ9+nRhX3W0BrSCM844w+fjb4J8cExIx8eW0W+++ab069fPp0e/+vfvXw7DaB47L24EEkdu4I4SO9sjyDTvRrVmjgw5GLkhtAoEC7e4wUiHM4BMdWm58KieQ77//vsUUa+++moZNWqUH/VbtGjhOxvsBqFw3UsuuUSGDh3q8+FIAEMdGsQVV1whl19+uVx33XVCXWgYdFibOEcDcfKrm4qst956gpfQUE477TTvESWMs3DdQyCR5MbAhXU8FCzYzJsfe+yxMFp69Oghp59+elocJ9mcIUAkVe+14A477JBSy1HlQ/JrnoqOuBm64447/OjLyHnffffJp59+mlYMy735506DxE4KhEAiyY0TQFTlUFBHUbF1rqxpGMHyEYxbjGzshBEK1zzrrLN8FMtVq6yySphcqTAdDHP9isT8c1eEkKVXBoFEvsSClRsVGRI2adLEj8IYz4iHMMQx70RCi7gC8Jabi0LWONl222390hi+tvw78i4TlnPmy127dhWWtxhtUeuXdx1HJpU4WveUKVOiUb6umTNn+njWxKMeQ0P/3FFbAoUY5e+//37Zf//90+rGcEj7ETor2kjb9fPuu++m5beTuolAIsnNo2DezUgd93bXiBEj/LJVqHqPHz/eq+fTpk3zFnGs16HQWbCWvcwyy/g5LmvaWMgRVH28eUKme++91y/BYY3/aNIkOeecc7yxK0qwsG6MYEwP1MKOWv/KK6/4eT7ugZnv80ILy22QnE6La9KhYEjbb7/9Uga+sF7COCpEeDsPA2EDZ6hjSoFVvbsz6L344oseqzFjxsi+++7rDYpcAyu9tsdXYF91DoFEquX6FFhCevjhh2WnnXbSKH9kqQvrdigQilGXl02UEBCLeMiFBTp8s40XVPRNM4gH2REs1uPGjfME5IUZCM/1mSbEvWrKNXg1lrk2L7RAYOwD+Pc++eSTZbvttvNE5rXY62+4wV8Dt7+8nBN2Tj4hyxfTBDoQlgkbNmzoc/JCTN++ff2LPWr9V22EV23RajAWmtRNBBJJbtRMfd+bpSTe/OKcH+6jjz4qxEEorM6sTRNm2YhPKIyKa621licnYRVedEE23XRTP5LycsvGG2/sX5yBFLzuihUaox4dTHMXvsuFUb2xqofCMhsd0AYbbODX3VmKC3e1XMFpIPu5ERWSY2FH9BjWU1GYpT4+CB0HRsQJEyYI1nadorAPNlZ2phWTnNYRfaOuomtYenEhUDL99wWlf8rW+yr3f+5Fwf+5nVvecv/ndjGp/3Mv9ARc6P/P7eKd+98uzVfXmnM+MtrqCJRLoYqWsHihZUHgirh+vXqevFo3IyCjPWoyy1J8VKa5V11bumUt1F46FTqEfJbqqIe35ygTviSj9UePaBlvvvWWV7mjaeE5aj9W9+i9097f3PXohKIdUVjewslAoJC7nyaS3MmA3VphCBQegUKSO7EGtcLDalcwBIobASN3cT9fu7s6jICRuw4/fLv14kbAyF3cz9furg4jYOSuww/fbr24ETByF/fztburwwgYuevww7dbL24EjNzF/Xzt7uowAkbuOvzw7daLGwEjd3E/X7u7OoyAkbsOP3y79eJGwMhd3M/X7q4OI2DkrsMP3269uBEwchf387W7q8MIGLnr8MO3Wy9uBIzcxf187e7qMAJG7jr88O3WixuBWkPuQvrn1kccbu2EJxHc9eQruD2K20gx33oy5Tf/3JmQsfgoAoncIDHayEL659ZrsQ3wFltsIUPcZodsYMgGg3g+wZ1PPoInT/xxq4ODaFnzzx1FxM4LhUCiyV0T/rkVWDYcRPLZmZROBxdCCJs64mZYN0HElZD6JGN7ZJz/XXnllWL+uT1c9lUDCDS4cwpbl4ZXWlx6moorTXebojpxYVIXliayEypbn5a4aMIlLrzIZ1wsCxe5+AWL3O6nlMtPato/N63DVTDbFKubIUZY3P3qud4B+6Wz6yjCnuC6LzhbIOMIAXe+CCRWL6C6zzjx5p8bFExqAoEGl3eqn3adcN5JQrAjsNtuuMRvOax5OGo6Ycdnn77IBQjzyVdq2j837cNlMHuS45CA0RfB0wlqOT7KMgkq+OOPP+6TKXf77bf77ZGJwAMKe6XjwQTBQYDuL+4jMnyZf+4MwFh03ggkTi2vaf/cjLB9+vTx3kKU2LmiOHPWLN8B4H8MN0VrrrmmTJw40RdHFceJgJ7rXufmnztXdC1fVRFIHLm5ISVCLjcX3ZRfy+Tqn/vbb7/1qvTmm2+uRfM6Nm7cWAYNGpRzGfPPnTNUlrGKCCSS3DXpnxs3QLglwingFVdckYIT6zluhjp27JiKI4BL3qq492VEN//caZDaSYEQSCS5/wn/3HjQZClMBfdBWLyjc251Mki+X37+OeV0UMtV5mj+uSuDmpWpCIFEkhvjE6Pm8ccfL0OGDPGeNvHPjfdMPGNisNt1113lwQcfzOif+wHn17p///7l7l/9c6tjQV26wi0uHxVcATMHV+d7Gh8eMf6FTv/CtFzCoX/u4447rlwRRnn8c4cdCpnwz821D3M+ytU/t94H6fg069mzJ0GTOoxAYt9QY95dU/65K/v8K0Nu889dWbStXL4IJHLk1puoCf/cLOHhYzsquMlFe2C9Oyr4+mZUHTZsmAwePDianPW8odMGzD93VogssZoQKHGGo9I3Usoq1DVsrR/Dkgpp+iGOsKYTRl3WY+la96K8HMzrdaL+uVHJVY3mhRDUTlR3VFE+vHeeSZhL8653nH/u4cOHyx9//CHbb799puKx8byVxttzd911l/cXHpupkpGffPKJnHbaaULbMknUP/eZZ54p9evX90ZB/HNvtNFGKf/clV0FyHRti69eBArp5TOR5K5p/9yVeVx0YsyZ11prrcoUz1jG/HNnhKYoE+ocuYvyKdpNGQIxCBSS3Ik1qMXgYFGGgCGQBwJG7jzAsqyGQG1CwMhdm56WtdUQyAMBI3ceYFlWQ6A2IWDkrk1Py9pqCOSBgJE7D7AsqyFQmxAwctemp2VtNQTyQMDInQdYltUQqE0IGLlr09OythoCeSBg5M4DLMtqCNQmBIzctelpWVsNgTwQMHLnAZZlNQRqEwJG7tr0tKythkAeCBi58wDLshoCtQkBI3dtelrWVkMgDwSM3HmAZVkNgdqEgJG7Nj0ta6shkAcCtYbcd9xxh0z77LM8bi3/rGydpGL+uRUJO9ZWBBK7+yn7cc+YMcPjin8tvJCwv9gKK6yQwrp58+Ypr5pEnn322TJhwoRUerbAhhtuKAMGDEhlYaNH88+dgsMCRYBAYsmNex/2Lm/VqpXf2bNXr14ebrYbRqZPny6jR49OI/dXX30l4RA42wAADLNJREFURx99tHTr1s3nyfT19ttvy1NPPZWWbP650+CwkyJAILHkBtvdd9/db53MNsI/O9c9CNsc4wmkbdu28sADD/i48As/XngBueCCC4QRPxSc8F155ZWxvr7MP3eIlIWLAYFEkxuAH3vsMfnggw9SLnVwuduuXTvBn1g2CZ36ZctHmvnnrgghS6+NCCSe3Oecc458+umnfsRt1qyZXHXVVX7ePXPmzIx4M5eeMmVKbPr666/vN+3XRPPPrUjYsdgQSDS5MXJhWGM+vNtuuwlE7Nevnx+1Q6d90Yey1VZb+dH92muvlQMPPFCmTp3qvZTstddegj9t1HwV88+tSNix2BBINLlxITRr1ix55JFHBCMY0qlTJ28532abbTI+C6ze8+bN89bzo446ys/NsbTjWggZMWJEqqz5505BYYEiQyCx5O7bt680bdpU9t57bw85vrPatGkjO++8s+DPGrJmc5/73HPPSceOHcu5+EVlb9++fbnHaP65y0FiEbUcgUSSG+d1UUs3zv9wAogTvlAaNGgg7777bhjlHfTdeeedcrt78QUhD8tkdAhYxXGUFxXzzx1FxM5rOwKJJPfQoUO9t1DA5a2xPn36eGs5TuinTZsmF198sV8DJz10Os85S2ZPP/20DH38cVnTGeCQHXfc0ZO6e/fuKU3AJ1Txq7L+uW+77TYZO3as94CKNrLffvv5tfy45nDPCCsGLO/RUdERXXPNNbLOOutIJ/cyTo8ePfxUAw+fLPfxMg/2CWwWeP80qZsIJJLceM5kvv3CCy/4kXqZZZaRu+++26vYvIbas2dP6d27t+y6667SpEmTtCdHXta/IT2ubhGMaA8//HAq32uvvZYK03mYf+4UHBYoIgQa/PXXX2m3E75fTYL63yZMmqZrmGPol1vzLXCjxiL3yVfwtc0a9eTJk6VFixZywgknyD777JMaoY877jjp2rWrN7LdeOONfl6OVZy1b6R///5CfDbBJzevriKo6szjM0lcmvrnZs7fuXPnTEVj41u1bCl88hVGaT5I1D/34Ycf7uNbunoZvVk6nDRpkgwcONDH21fdRKDE/dCX/FvCYaDkVTiqSu5sRi+9Rnjkh4tlnOWs8D3yMI+Gadvrr78u2223ndSrV88vm2Esq8hn9tdffy0fffSRH/m1rnyP4GT+ufNFzfJHESikC9/EkTt683ZuCBQzAoUkd635y2cxP2C7N0OgEAgYuQuBqtVpCCQAASN3Ah6CNcEQKAQCRu5CoGp1GgIJQMDInYCHYE0wBAqBgJG7EKhanYZAAhAwcifgIVgTDIFCIGDkLgSqVqchkAAEjNwJeAjWBEOgEAgYuQuBqtVpCCQAASN3Ah6CNcEQKAQCRu5CoGp1GgIJQMDInYCHYE0wBAqBgJG7EKhanYZAAhAwcifgIVgTDIFCIGDkLgSqVqchkAAEjNwJeAjWBEOgEAgkntxsufTTTz/5e8c/N36zMwl7o1VFwi2mzD93VZC0sklAIJG7nyow77//vpx55pkpd7s3Ox/deBPBRRD7p7G97w477CCbbbaZL3Leeef5HVIvv/xyv6fa7NmzRTcP1Dr1OGjQoNQmicRRn/nnVnTsWAwIJJbcE93unWxffOmll8oaa6yRhvWoUaOEHU9x6qe7npKBnT/Zs5sdUm+99Va/vzfeSeJk9dVXT4s2/9xpcNhJESCQOHL/+eefnqRPPvmkJycOAJEvv/zSew2ZMGGCbLrppsLoHHULhEeSm266ScaNG+c352c/8kw7oeLBhD3OVcw/tyJhx2JBoFrJjSOAcN5aGZDmzJnjvYrcc889csopp3iPnKjheObEm0avXr28Wq51461j8ODBfv9y1HCkdevW/oj/rwULFvh9vpdbbjmvenPeqFEjWXnllb33UDKaf24Pl30VGQLVSu7qwAYPIngMwbcXguscVHC8ceJWCHe82oF88skn3nkBZXDtg/MCHCQwWuOtBJc9CJ5BUeWJGzlypDDfVjH/3IqEHYsNgcSROw5gnVfjPuiss87yroXIt9JKK8nRRx/t/WGtt956Mn78eMGifsrJJ6eqgbz412K0jhPzzx2HisUVAwIFI3c9p6IvqgJCK664ohxwwAGpGu666y5PUtwN5SM4Dowa5MLy5p87RMPCxYRAwchdWZBYknr11Vd9cUbsESNG+PDo0aP9nLtZmefOsH7cCTEfjxPm7qRHBcs6fsgY/RHzzx1FyM5rOwKJIzeOCeMc2OF2BcHPV1SwnitJwzTm7mPGjPHOAYnH4Kcvujz22GNy0kknpbKbf+4UFBZIIAJRV9U0saSCdiaO3Msuu6w8++yz5ZrNejdLXeeee265tDACQxzLXHQCWNHvvffeFPE7dOjgfVxvsskmggZQkaPBsN64sPnnjkPF4pKCQOLIXRVgGKX7uJdY1LL+0EMPeTfAWicvvbzzzjveba+uf2N5N//cipAdiwmBoiE3c3XeTsM/90477STPPPOMHHHEEfL3339L48aN/euo9evX90tl5CW+X79+0qZNG/PPXUy/6Fp6L7igrm6pVhe+jIL6Yb2ZF0by9c+d6QZZs2ZJq0uXLpmyeKfzbdu2TUuHyN+6+frfbi6/wIVDWdc5s89kiAvzxYW5T/PPHYeMxeWDgLrw5beNMLeG6DrHZkAirOcaZom3pF5D91nSKZTUS5+FV5ncNAgCKan1WN3k5jomhkCxIZCN3BBZiV4Zci+hfbGhZvdjCNRCBJTEOTU9faAuV6QcufOqvFx1FmEIGAKVRaC6uVeO3JVtGOWqu3FVaYuVNQRqCwKF4k0D/m0VFebNKjqHjjtnro2Qhzl2GCZN43yCfRkChkBeCEQt6OU7gex6eQOWiaISklsJTB6NV8LruRrUyAOhiScuLEuaiSFgCGRHoDyBs+fPllqtanm2C1maIWAI1CwCFZI77EnCcM02065mCBgCIBByMAzHoVMhueMKxV1EL6THaJ5M9Vi8IVCXEYjjC3Fx8dlwipt9V0ju6KQ+2wXCtGgDwzQLGwKGQCkCheRJheSuzEPQXkePlanDyhgCdQEB5Ygec73nXPJXidxxF4jG2XJYro/L8tU1BKLciHIHPOLiYnGKvFdOHrcbUpy2Hls8Y6S+/6oZqFPj+G919CY0nx0NgbqKAJyAGyFXFAuN0/PKHmP/8knluoYdrZg0hPRovvBc882fP9/vfsLNLHSfRWV/MtG18UVlL8wsLlsfz3TdsB255AnzW9gQqA4E9DedrS7y+E/Zv7XYS5Bz/XdXPfcvr/oujcFPB8Cw3jDMdfSco4azXT9MiyV3mIEwleZDKG0EjYfUHCnvb8rVBbHJQ1p9V7+v2910eA3CSvxoe+zcEEgSAkpgbZP+/vWoJFaCE69xetS8WkdFx1zy50RuGpDpbTMuAhHJA1kRJaneBGW5MSW1loG8OmJHb0br0GM03c4NgSQgoCTTY9gm4vi/tZJf88AFRImtZXz+MuITp/k1PdMx+j9uX9Z95UTuaKVcVEkXhsN82jDyKbE50gGQ5kdtd3R36NX1sCyE1/Jp8a4uE0Pgn0Yg7rdJm8KNEzhHU1WByIgeleDUlbE++FEmmfJoermjK5uR3FSmBC5X0EWE6RqOjt7Ea1pIbOrVmyTcoKwnI+yvWXYed92K4kyVrwghS8+GAKNsVUR/81oH5yqapr99PSddw2FaWE7D+Rw9uanYkypLSR1947LEldc4JTz1Ew7PiSOfirZBjxqfz3FJX5lPKctrCFQdAf0t61Fr5JyPEpf48DyaX9O1fPSoo77PF00MzjOO3EGe2KA2SInIOeGQvNE4KtI8hLPN40lHtP7SM/s2BJKFgPIgbFU0Lo2MZYOZEl3zcozGUSfxmie8Riocs76tw2VWclNpSK7oeeoCZY3gXMnLnJqwllHSa0NJ05sO84Z1Etb8YXzYpjDewoZAIRGI+y1muh55lazkCctqvMaFeQlrfFzd2dJS+V0dSIrcFKqINDQqHG31QnHllMykad3Eca5x2hi9WUiei+h1c8lreQyBmkZAf8/R3ynnGhceNX+0nWF+TQvz6gitadFjitzRhEznXDBKZo3TBms6DYkblTU/1wiJriO5xmsbciW95rejIVATCKQRrWy0jF5XORE9ko+4aB1x+bROTdNzt8aWCmogjKmQ3FSoZKUCGhMdvZWgeiSfltHGa5lyDSRzBaKk1zoryG7JhkBBEYj7DcfF0QiN16M2TH/Tek665okeNY9ySc9jj0Enk0ZuKs2FQNF8eh4e9cJaHzejozhp5A2P5NO8YbzPVPalZcI4CxsCSUOA32mm3yrxIUk1X6aj3pumZzrX+PD4/wf0DVLALiFXAAAAAElFTkSuQmCC;" vertex="1" parent="1">
          <mxGeometry x="70" y="90" width="161.59" height="210" as="geometry" />
        </mxCell>
        <mxCell id="G_KYo-sjxfi8cRtEnCS_-11" style="edgeStyle=none;rounded=0;orthogonalLoop=1;jettySize=auto;html=1;exitX=0.5;exitY=0;exitDx=0;exitDy=0;fontFamily=Tahoma;fontSize=15;shape=link;" edge="1" parent="1" source="G_KYo-sjxfi8cRtEnCS_-7" target="G_KYo-sjxfi8cRtEnCS_-9">
          <mxGeometry relative="1" as="geometry" />
        </mxCell>
        <mxCell id="G_KYo-sjxfi8cRtEnCS_-7" value="ClusterSelect" style="rounded=0;whiteSpace=wrap;html=1;fontSize=15;" vertex="1" parent="1">
          <mxGeometry x="150" y="490" width="150" height="80" as="geometry" />
        </mxCell>
        <mxCell id="G_KYo-sjxfi8cRtEnCS_-8" value="PublicClusterSelect" style="rounded=0;whiteSpace=wrap;html=1;fontSize=15;" vertex="1" parent="1">
          <mxGeometry x="360" y="490" width="150" height="80" as="geometry" />
        </mxCell>
        <mxCell id="G_KYo-sjxfi8cRtEnCS_-14" style="rounded=0;orthogonalLoop=1;jettySize=auto;html=1;exitX=1;exitY=0;exitDx=0;exitDy=0;fontFamily=Tahoma;fontSize=15;" edge="1" parent="1" source="G_KYo-sjxfi8cRtEnCS_-9" target="G_KYo-sjxfi8cRtEnCS_-13">
          <mxGeometry relative="1" as="geometry" />
        </mxCell>
        <mxCell id="G_KYo-sjxfi8cRtEnCS_-9" value="&lt;span style=&quot;font-family: Helvetica;&quot;&gt;ClusterContext&lt;/span&gt;" style="ellipse;shape=doubleEllipse;whiteSpace=wrap;html=1;aspect=fixed;fontFamily=Tahoma;fontSize=15;" vertex="1" parent="1">
          <mxGeometry x="250" y="300" width="120" height="120" as="geometry" />
        </mxCell>
        <mxCell id="G_KYo-sjxfi8cRtEnCS_-12" style="edgeStyle=none;rounded=0;orthogonalLoop=1;jettySize=auto;html=1;exitX=0.25;exitY=0;exitDx=0;exitDy=0;fontFamily=Tahoma;fontSize=15;shape=link;entryX=1;entryY=1;entryDx=0;entryDy=0;" edge="1" parent="1" source="G_KYo-sjxfi8cRtEnCS_-8" target="G_KYo-sjxfi8cRtEnCS_-9">
          <mxGeometry relative="1" as="geometry">
            <mxPoint x="235" y="500" as="sourcePoint" />
            <mxPoint x="287.1650382210387" y="420.21817683841164" as="targetPoint" />
          </mxGeometry>
        </mxCell>
        <mxCell id="G_KYo-sjxfi8cRtEnCS_-13" value="集群列表接口" style="ellipse;shape=cloud;whiteSpace=wrap;html=1;fontFamily=Tahoma;fontSize=15;" vertex="1" parent="1">
          <mxGeometry x="480" y="150" width="130" height="80" as="geometry" />
        </mxCell>
        <mxCell id="G_KYo-sjxfi8cRtEnCS_-16" style="edgeStyle=none;rounded=0;orthogonalLoop=1;jettySize=auto;html=1;exitX=0.1;exitY=0.5;exitDx=0;exitDy=0;exitPerimeter=0;entryX=1;entryY=0.5;entryDx=0;entryDy=0;fontFamily=Tahoma;fontSize=15;" edge="1" parent="1" source="G_KYo-sjxfi8cRtEnCS_-15" target="G_KYo-sjxfi8cRtEnCS_-9">
          <mxGeometry relative="1" as="geometry" />
        </mxCell>
        <mxCell id="G_KYo-sjxfi8cRtEnCS_-15" value="" style="shape=curlyBracket;whiteSpace=wrap;html=1;rounded=1;fontFamily=Tahoma;fontSize=15;" vertex="1" parent="1">
          <mxGeometry x="414" y="300" width="20" height="120" as="geometry" />
        </mxCell>
        <mxCell id="G_KYo-sjxfi8cRtEnCS_-19" value="全量集群列表数据" style="text;html=1;strokeColor=none;fillColor=none;align=center;verticalAlign=middle;whiteSpace=wrap;rounded=0;fontFamily=Tahoma;fontSize=15;" vertex="1" parent="1">
          <mxGeometry x="440" y="310" width="130" height="30" as="geometry" />
        </mxCell>
        <mxCell id="G_KYo-sjxfi8cRtEnCS_-20" value="公有云集群列表数据" style="text;html=1;strokeColor=none;fillColor=none;align=center;verticalAlign=middle;whiteSpace=wrap;rounded=0;fontFamily=Tahoma;fontSize=15;" vertex="1" parent="1">
          <mxGeometry x="440" y="350" width="140" height="30" as="geometry" />
        </mxCell>
        <mxCell id="G_KYo-sjxfi8cRtEnCS_-21" value="当前选择的集群code" style="text;html=1;strokeColor=none;fillColor=none;align=center;verticalAlign=middle;whiteSpace=wrap;rounded=0;fontFamily=Tahoma;fontSize=15;" vertex="1" parent="1">
          <mxGeometry x="440" y="390" width="140" height="30" as="geometry" />
        </mxCell>
        <mxCell id="G_KYo-sjxfi8cRtEnCS_-25" value="选择环境，改变context，同时存入sessionStorage" style="text;html=1;strokeColor=none;fillColor=none;align=center;verticalAlign=middle;whiteSpace=wrap;rounded=0;fontFamily=Tahoma;fontSize=15;" vertex="1" parent="1">
          <mxGeometry x="300" y="450" width="366" height="30" as="geometry" />
        </mxCell>
      </root>
    </mxGraphModel>
  </diagram>
</mxfile>
